# xmcd CD database file
#
# Track frame offsets:
#	150
#	13285
#	30557
#	46730
#	62707
#	76560
#	101255
#	110107
#	124785
#	140085
#	157525
#	171362
#
# Disc length: 2549 seconds
#
# Revision: 0
# Processed by: cddbd v1.5.1PL0 Copyright (c) Steve Scherf et al.
# Submitted via: CDex 1.51
#
DISCID=9009f30c
DTITLE=大橋　純子 - 沙浪夢
DYEAR=1994
DGENRE=J-Pop
TTITLE0=JOURNEY TO THE MIND
TTITLE1=〜 パミールの夜明け
TTITLE2=季節風便り
TTITLE3=SOUL TRAIN まっしぐら
TTITLE4=CHINA DREAM
TTITLE5=SPANISH WIND
TTITLE6=サンバ・デ・カランコ
TTITLE7=〜 アラ・パナマ
TTITLE8=SUMMER DREAMIN'
TTITLE9=STAR-LIGHT TRAIN
TTITLE10=JUST FALLIN' IN LOVE
TTITLE11=愛のメッセージ
EXTD=YEAR: 1994. 5.25(1978. 6.25)
EXTT0=
EXTT1=
EXTT2=
EXTT3=
EXTT4=
EXTT5=
EXTT6=
EXTT7=
EXTT8=
EXTT9=
EXTT10=
EXTT11=
PLAYORDER=
